<?xml version="1.0" encoding="UTF-8"?>
<!DOCTYPE svg PUBLIC "-//W3C//DTD SVG 1.1//EN" "http://www.w3.org/Graphics/SVG/1.1/DTD/svg11.dtd">
<!-- Creator: CorelDRAW X6 -->
<svg xmlns="http://www.w3.org/2000/svg" xml:space="preserve" width="59.2666mm" height="59.2666mm" version="1.1" style="shape-rendering:geometricPrecision; text-rendering:geometricPrecision; image-rendering:optimizeQuality; fill-rule:evenodd; clip-rule:evenodd"
viewBox="0 0 5927 5927"
 xmlns:xlink="http://www.w3.org/1999/xlink">
 <defs>
  <style type="text/css">
   <![CDATA[
    .str0 {stroke:#E6E7E8;stroke-width:211.67;stroke-linecap:round}
    .fil0 {fill:#FEFEFE}
   ]]>
  </style>
 </defs>
 <g id="Capa_x0020_1">
  <metadata id="CorelCorpID_0Corel-Layer"/>
  <path class="fil0 str0" d="M2779 3885c-168,291 -369,639 -486,842 -118,204 -152,264 -106,293 46,29 173,28 293,28 119,0 231,1 303,-26 72,-27 104,-82 290,-406 187,-324 529,-916 720,-1247 191,-331 232,-401 229,-476 -2,-74 -48,-153 -242,-490 -195,-337 -538,-933 -723,-1252 -184,-319 -209,-363 -341,-384 -132,-22 -371,-22 -474,7 -103,29 -69,87 113,403 183,317 515,893 706,1222 190,330 239,414 241,493 2,80 -41,155 -130,310 -90,155 -225,390 -393,681z"/>
 </g>
</svg>
