<?xml version="1.0" encoding="UTF-8"?>
<!DOCTYPE svg PUBLIC "-//W3C//DTD SVG 1.1//EN" "http://www.w3.org/Graphics/SVG/1.1/DTD/svg11.dtd">
<!-- Creator: CorelDRAW X6 -->
<svg xmlns="http://www.w3.org/2000/svg" xml:space="preserve" width="176mm" height="176mm" version="1.1" style="shape-rendering:geometricPrecision; text-rendering:geometricPrecision; image-rendering:optimizeQuality; fill-rule:evenodd; clip-rule:evenodd"
viewBox="0 0 17600 17600"
 xmlns:xlink="http://www.w3.org/1999/xlink">
 <defs>
  <style type="text/css">
   <![CDATA[
    .fil22 {fill:none}
    .fil11 {fill:#29404E}
    .fil3 {fill:#2C4A5B}
    .fil35 {fill:#2D4746}
    .fil8 {fill:#356076}
    .fil17 {fill:#395A5D}
    .fil37 {fill:#40695D}
    .fil36 {fill:#416D60}
    .fil4 {fill:#456F71}
    .fil12 {fill:#457275}
    .fil5 {fill:#508A8E}
    .fil14 {fill:#55574F}
    .fil25 {fill:#5B8074}
    .fil29 {fill:#5D857A}
    .fil33 {fill:#5F7973}
    .fil21 {fill:#61897D}
    .fil18 {fill:#639082}
    .fil24 {fill:#649185}
    .fil34 {fill:#64967D}
    .fil26 {fill:#699B8F}
    .fil23 {fill:#6DA496}
    .fil32 {fill:#73948C}
    .fil19 {fill:#73A999}
    .fil6 {fill:#78B3A1}
    .fil20 {fill:#7DC3AF}
    .fil7 {fill:#7FCBB8}
    .fil30 {fill:#9B9E9F}
    .fil9 {fill:#A2C8AD}
    .fil2 {fill:#A4C9AD}
    .fil13 {fill:#AAAE94}
    .fil28 {fill:#C2C4C4}
    .fil10 {fill:#C85851}
    .fil0 {fill:#CAE6CD}
    .fil15 {fill:#D3D6B2}
    .fil31 {fill:#EDEDEB}
    .fil1 {fill:#F16A60}
    .fil16 {fill:#F6F6CC}
    .fil27 {fill:#FEFEFE}
   ]]>
  </style>
 </defs>
 <g id="Capa_x0020_1">
  <metadata id="CorelCorpID_0Corel-Layer"/>
  <polygon class="fil0" points="17621,17630 -18,17630 -18,-9 17621,-9 "/>
  <path class="fil1" d="M12688 14798c10,232 -191,395 -450,364 -259,-31 -472,-243 -477,-473 -5,-230 197,-393 450,-364 253,29 467,241 477,473z"/>
  <path class="fil1" d="M13352 13796c38,621 -484,1059 -1165,978 -681,-81 -1234,-639 -1234,-1248 0,-609 522,-1047 1165,-978 643,68 1196,627 1234,1248z"/>
  <path class="fil1" d="M14329 13738l-70 6c1,9 1,18 1,27 0,78 -29,140 -77,186 -48,45 -117,74 -202,74 -14,0 -29,-1 -45,-3 -103,-12 -201,-62 -274,-134 -73,-72 -120,-165 -125,-256 0,-7 -1,-14 -1,-21 0,-80 30,-144 79,-191 49,-47 119,-76 204,-76 13,0 27,1 41,2 100,11 197,61 270,133 73,72 121,166 129,259l70 -6 70 -6c-12,-133 -77,-255 -171,-347 -94,-93 -218,-158 -354,-173 -19,-2 -38,-3 -57,-3 -118,0 -224,42 -301,115 -77,73 -123,177 -122,293 0,10 0,20 1,30 9,133 73,255 167,348 94,93 220,158 358,174 21,2 41,3 61,3 117,0 223,-40 299,-112 76,-71 122,-174 121,-288 0,-13 -1,-26 -2,-39l-70 6z"/>
  <path class="fil1" d="M14737 14882c18,193 -138,330 -349,305 -211,-25 -393,-201 -408,-394 -14,-192 142,-329 349,-305 207,24 390,200 408,394z"/>
  <path class="fil1" d="M4963 2339c-136,-283 -425,-510 -753,-563 -445,-71 -801,203 -796,613 3,194 88,385 225,540 -62,133 -95,283 -93,446 1,35 3,70 7,105 -41,-15 -82,-26 -125,-33 -345,-59 -624,160 -623,487 1,328 287,644 639,706 264,47 488,-65 579,-264 272,264 638,462 1037,532 826,145 1459,-319 1415,-1037 -44,-718 -721,-1403 -1513,-1533z"/>
  <path class="fil1" d="M3339 5076c-196,-35 -354,82 -353,261 1,179 163,353 361,389 198,36 356,-81 353,-261 -3,-180 -165,-354 -361,-389z"/>
  <path class="fil1" d="M2858 1677l8 -52c-17,-3 -33,-4 -49,-4 -70,0 -135,25 -182,71 -47,45 -75,110 -75,181 0,80 34,155 86,213 52,58 124,101 205,114 17,3 34,4 50,4 70,0 135,-25 181,-70 47,-45 74,-109 74,-180l0 -2 0 0c-1,-80 -34,-155 -86,-213 -52,-58 -123,-101 -204,-114l0 0 -8 52 -8 52c54,9 105,38 142,80 37,41 59,93 59,143l0 0 0 1c0,44 -16,79 -42,104 -26,25 -63,40 -108,40 -11,0 -22,-1 -33,-3 -55,-9 -106,-39 -143,-80 -37,-41 -59,-93 -59,-143 0,-45 16,-80 42,-105 26,-25 63,-41 108,-41 10,0 21,1 32,3l0 0 8 -52z"/>
  <path class="fil1" d="M5783 2739c16,312 -237,520 -565,466 -328,-55 -602,-350 -613,-659 -10,-309 243,-517 565,-466 322,52 596,347 613,659z"/>
  <path class="fil2" d="M12439 15503c0,150 -1323,272 -2954,272 -1632,0 -2954,-122 -2954,-272 0,-150 1323,-272 2954,-272 1632,0 2954,122 2954,272z"/>
  <path class="fil3" d="M12313 13795l-1304 -9666c-55,-414 -394,-794 -756,-850l-4184 -640 42 -134 -317 136c-40,11 -77,27 -112,48l-6 2 1 1c-175,109 -277,338 -247,622l1053 10123c45,432 391,799 772,820l4470 247c113,6 216,-18 303,-65l1 0 258 -108 -33 -130c56,-114 79,-253 59,-406z"/>
  <path class="fil4" d="M12038 14370l-4470 -247c-381,-21 -727,-388 -772,-820l-1053 -10123c-45,-433 213,-740 575,-685l4249 650c362,56 700,436 756,850l1304 9666c56,413 -207,730 -588,709z"/>
  <path class="fil5" d="M6755 12911l-1012 -9732c-45,-433 213,-740 575,-685l4249 650c271,42 529,266 665,551l-4476 9216z"/>
  <path class="fil6" d="M11843 12887l-4443 -300c-223,-15 -426,-233 -453,-488l-881 -8354c-27,-255 126,-437 340,-406l4267 621c214,31 414,255 447,500l1068 8013c33,244 -122,430 -345,414z"/>
  <path class="fil7" d="M7100 12432c-82,-88 -139,-207 -153,-334l-881 -8354c-27,-255 126,-437 340,-406l4267 621c106,15 208,78 288,166l-3862 8306z"/>
  <path class="fil3" d="M10127 13394c32,263 -134,465 -372,451 -238,-14 -456,-240 -487,-505 -31,-265 135,-467 372,-451 237,16 454,242 487,505z"/>
  <path class="fil8" d="M10127 13394l-35 4c3,20 4,41 4,60 0,104 -34,192 -90,254 -56,62 -134,99 -228,99 -7,0 -14,0 -21,-1 -108,-6 -214,-61 -297,-148 -83,-86 -142,-202 -156,-326 -2,-20 -4,-40 -4,-59 0,-104 34,-193 90,-255 56,-62 133,-99 225,-99 8,0 15,0 23,1 108,7 214,63 297,149 83,86 142,202 157,325l35 -4 35 -4c-17,-140 -83,-269 -176,-365 -93,-97 -214,-162 -343,-170 -9,-1 -19,-1 -28,-1 -112,0 -210,46 -278,122 -68,76 -108,183 -108,302 0,22 1,44 4,67 17,141 82,270 176,367 93,97 215,161 344,169 8,0 17,1 25,1 112,0 211,-46 280,-122 69,-76 108,-182 108,-301 0,-22 -1,-45 -4,-69l-35 4z"/>
  <path class="fil3" d="M8883 3524l-728 -107c-40,-6 -77,-48 -82,-95 -5,-47 23,-80 62,-74l727 108c40,6 77,48 82,95 6,46 -22,79 -62,73z"/>
  <path class="fil8" d="M8883 3524l5 -35 -728 -107c-9,-1 -22,-8 -32,-20 -10,-12 -18,-28 -20,-44l0 -7c0,-12 3,-19 7,-23 3,-4 6,-5 12,-5l4 0 727 108c9,1 22,8 33,20 11,12 18,28 20,44l1 7c0,11 -3,18 -6,22 -3,3 -6,5 -12,5l-4 0 -5 35 -5 35c5,1 9,1 14,1 25,0 50,-11 65,-30 16,-18 24,-43 24,-68 0,-5 0,-11 -1,-16 -4,-31 -17,-59 -37,-81 -19,-22 -45,-39 -75,-44l-727 -108c-5,-1 -10,-1 -14,-1 -26,0 -50,11 -66,30 -16,19 -24,43 -24,68 0,5 0,10 1,15 4,31 17,59 36,82 19,22 45,39 76,44l728 107 5 -35z"/>
  <path class="fil3" d="M5182 8979l0 0c-6,-7 -18,-8 -25,-2 -7,6 -8,18 -2,25l0 0c6,7 18,8 25,2 7,-6 8,-18 2,-25zm-45 -54l0 0c-6,-8 -17,-9 -25,-3 -8,6 -9,17 -3,25l0 0c6,8 17,9 25,3 8,-6 9,-17 3,-25zm-44 -55l0 0c-6,-8 -17,-9 -25,-3 -8,6 -9,17 -3,25 6,8 17,9 25,3 8,-6 9,-17 3,-25zm-43 -56l0 0c-6,-8 -17,-9 -25,-3 -8,6 -9,17 -3,25l0 0c6,8 17,9 25,3 8,-6 9,-17 3,-25zm-42 -56l0 0c-6,-8 -17,-9 -25,-4 -8,6 -9,17 -4,25l0 0c6,8 17,9 25,4 8,-6 9,-17 4,-25zm-42 -57l0 0c-6,-8 -17,-10 -25,-4 -8,6 -10,17 -4,25l0 0c6,8 17,10 25,4 8,-6 10,-17 4,-25zm-41 -57l0 0c-6,-8 -17,-10 -25,-4 -8,6 -10,17 -4,25l0 0c6,8 17,10 25,4 8,-6 10,-17 4,-25zm-40 -58l0 0c-6,-8 -17,-10 -25,-4 -8,6 -10,17 -4,25l0 0c6,8 17,10 25,4 8,-6 10,-17 4,-25zm-40 -58l0 0c-5,-8 -16,-10 -24,-5 -8,5 -10,16 -5,24 5,8 16,10 25,5 8,-5 10,-16 5,-25zm-39 -58l0 0c-5,-8 -16,-10 -24,-5 -8,5 -10,16 -5,24 5,8 16,10 24,5 8,-5 10,-16 5,-24zm-39 -59l0 0c-5,-8 -16,-11 -24,-5 -8,5 -10,16 -5,24 5,8 16,11 24,5 8,-5 11,-16 5,-24zm-38 -59l0 0c-5,-8 -16,-11 -24,-5 -8,5 -11,16 -5,24l0 0c5,8 16,11 24,5 8,-5 11,-16 5,-24zm-37 -60l0 0c-5,-8 -16,-11 -24,-6 -8,5 -11,16 -6,24 5,8 16,11 24,6 8,-5 11,-16 6,-24zm-37 -60l0 0c-5,-8 -16,-11 -24,-6 -8,5 -11,16 -6,24l0 0c5,8 16,11 24,6 8,-5 11,-16 6,-24zm-36 -60l0 0c-5,-8 -16,-11 -24,-6 -8,5 -11,16 -6,24l0 0c5,8 16,11 24,6 8,-5 11,-16 6,-24zm-36 -61l0 0c-5,-8 -16,-11 -24,-6 -8,5 -11,16 -6,24 5,8 16,11 24,6 8,-5 11,-16 6,-24zm-35 -61l0 0c-5,-9 -16,-11 -24,-7 -9,5 -11,16 -7,24l0 0c5,8 16,11 24,7 8,-5 11,-16 7,-24zm-34 -61l0 0c-5,-9 -15,-12 -24,-7 -9,5 -12,15 -7,24l0 0c5,9 15,12 24,7 9,-5 12,-15 7,-24zm-34 -62l0 0c-5,-9 -15,-12 -24,-7 -9,5 -12,15 -7,24l0 0c5,9 15,12 24,7 9,-5 12,-15 7,-24zm-33 -62l0 0c-5,-9 -15,-12 -24,-7 -9,5 -12,15 -7,24l0 0c5,9 15,12 24,7 9,-5 12,-15 7,-24zm-32 -63l0 0c-4,-9 -15,-12 -24,-8 -9,4 -12,15 -8,24 4,9 15,12 24,8 9,-4 12,-15 8,-24zm-32 -63l0 0c-4,-9 -15,-12 -24,-8 -9,4 -12,15 -8,24l0 0c4,9 15,12 24,8 9,-4 12,-15 8,-24zm-31 -63l0 0c-4,-9 -15,-12 -24,-8 -9,4 -12,15 -8,24 4,9 15,12 24,8 9,-4 12,-15 8,-24zm-30 -64l0 0c-4,-9 -15,-13 -23,-9 -9,4 -13,15 -9,23 4,9 15,13 23,9 9,-4 13,-15 9,-23zm-29 -64l0 0c-4,-9 -14,-13 -23,-9 -9,4 -13,14 -9,23l0 0c4,9 14,13 23,9 9,-4 13,-15 9,-23zm-29 -64l0 0c-4,-9 -14,-13 -23,-9 -9,4 -13,14 -9,23l0 0c4,9 14,13 23,9 9,-4 13,-14 9,-23zm-28 -65l0 0c-4,-9 -14,-13 -23,-9 -9,4 -13,14 -9,23 4,9 14,13 23,9 9,-4 13,-14 9,-23zm-27 -65l0 0c-4,-9 -14,-13 -23,-10 -9,4 -13,14 -10,23 4,9 14,13 23,10 9,-4 13,-14 10,-23zm-26 -65l0 0c-4,-9 -14,-13 -23,-10 -9,4 -13,14 -10,23l0 0c4,9 14,13 23,10 9,-4 13,-14 10,-23zm-26 -66l0 0c-3,-9 -14,-14 -23,-10 -9,3 -14,14 -10,23 3,9 14,14 23,10 9,-3 14,-14 10,-23zm-25 -66l0 0c-3,-9 -14,-14 -23,-11 -9,3 -14,14 -10,23l0 0c3,9 13,14 23,10 9,-3 14,-13 11,-23zm-24 -66l0 0c-3,-9 -13,-14 -23,-11 -9,3 -14,13 -11,23l0 0c3,9 13,14 23,11 9,-3 14,-13 11,-23zm-23 -67l0 0c-3,-9 -13,-14 -22,-11 -9,3 -14,13 -11,22l0 0c3,9 13,14 22,11 9,-3 14,-13 11,-22zm-22 -67l0 0c-3,-9 -13,-14 -22,-11 -9,3 -14,13 -11,22 3,9 13,14 22,11 9,-3 14,-13 11,-22zm-21 -67l0 0c-3,-9 -13,-15 -22,-12 -9,3 -15,13 -12,22 3,9 13,15 22,12 9,-3 15,-13 12,-22zm-20 -67l0 0c-3,-9 -12,-15 -22,-12 -9,3 -15,12 -12,22 3,9 12,15 22,12 9,-3 15,-12 12,-22zm-19 -68l0 0c-3,-9 -12,-15 -22,-12 -9,3 -15,12 -12,22 3,9 12,15 22,12 9,-3 15,-12 12,-22zm-18 -68l0 0c-2,-9 -12,-15 -21,-13 -9,2 -15,12 -13,21l0 0c2,9 12,15 21,13 9,-2 15,-12 13,-21zm-17 -68l0 0c-2,-9 -12,-15 -21,-13 -9,2 -15,12 -13,21l0 0c2,9 12,15 21,13 9,-2 15,-12 13,-21zm-16 -68l0 0c-2,-9 -12,-15 -21,-13 -10,2 -15,12 -13,21l0 0c2,10 12,15 21,13 9,-2 15,-12 13,-21zm-15 -69l0 0c-2,-10 -11,-16 -21,-14 -10,2 -16,11 -14,21l0 0c2,10 11,16 21,14 10,-2 16,-11 14,-21zm-14 -69l0 0c-2,-10 -11,-16 -21,-14 -10,2 -16,11 -14,21 2,10 11,16 21,14 10,-2 16,-11 14,-21zm-13 -69l0 0c-2,-10 -11,-16 -20,-14 -10,2 -16,11 -14,20l0 0c2,10 11,16 20,14 10,-2 16,-11 14,-20zm-11 -69l0 0c-1,-10 -11,-16 -20,-15 -10,1 -16,11 -15,20l0 0c2,10 11,16 20,15 10,-2 16,-11 15,-20zm-10 -69l0 0c-1,-10 -10,-16 -20,-15 -10,1 -16,10 -15,20l0 0c1,10 10,16 20,15 10,-1 16,-10 15,-20zm-9 -70l0 0c-1,-10 -10,-17 -20,-15 -10,1 -17,10 -15,20l0 0c1,10 10,17 20,15 10,-1 17,-10 15,-20zm-8 -70l0 0c-1,-10 -10,-17 -19,-16 -10,1 -17,10 -16,19 1,10 10,17 19,16 10,-1 17,-10 16,-19zm-6 -70l0 0c-1,-10 -9,-17 -19,-16 -10,1 -17,9 -16,19l0 0c1,10 9,17 19,16 10,-1 17,-9 16,-19zm-5 -70l0 0c-1,-10 -9,-17 -19,-17 -10,1 -17,9 -17,19l0 0c1,10 9,17 19,17 10,-1 17,-9 17,-19zm-4 -70l0 0c0,-10 -9,-17 -18,-17 -10,0 -17,9 -17,18l0 0c0,10 9,17 18,17 10,0 17,-9 17,-18zm-2 -70l0 0c0,-10 -8,-17 -18,-17 -10,0 -17,8 -17,18l0 0c0,10 8,17 18,17 10,0 17,-8 17,-18zm-1 -70l0 0c0,-10 -8,-18 -18,-18 -10,0 -18,8 -18,18l0 0c0,10 8,18 18,18 10,0 18,-8 18,-18zm1 -70l0 0c0,-10 -8,-18 -17,-18 -10,0 -18,8 -18,17 0,10 8,18 17,18 10,0 18,-8 18,-17zm2 -70l0 0c0,-10 -7,-18 -17,-18 -10,0 -18,7 -18,17l0 0c0,10 7,18 17,18 10,0 18,-7 18,-17zm3 -70l0 0c1,-10 -7,-18 -17,-19 -10,-1 -18,7 -19,17 -1,10 7,18 17,19 10,1 18,-7 19,-17zm5 -70l0 0c1,-10 -6,-18 -16,-19 -10,-1 -18,6 -19,16 -1,10 6,18 16,19 10,1 18,-6 19,-16zm6 -70l0 0c1,-10 -6,-18 -16,-19 -10,-1 -18,6 -19,16 -1,10 6,18 16,19 10,1 18,-6 19,-16zm8 -70l0 0c1,-10 -6,-18 -15,-20 -10,-1 -18,6 -20,15 -1,10 6,18 15,20 10,1 18,-6 20,-15zm9 -69l0 0c1,-10 -5,-19 -15,-20 -10,-1 -19,5 -20,15l0 0c-1,10 5,19 15,20 10,1 19,-5 20,-15zm11 -69l0 0c2,-10 -5,-19 -14,-20 -10,-2 -19,5 -20,14 -2,10 5,19 14,20 10,2 19,-5 20,-14zm13 -69l0 0c2,-10 -4,-19 -14,-21 -10,-2 -19,4 -21,14l0 0c-2,10 4,19 14,21 10,2 19,-4 21,-14zm14 -69l0 0c2,-10 -4,-19 -13,-21 -10,-2 -19,4 -21,13l0 0c-2,10 4,19 13,21 10,2 19,-4 21,-13zm16 -68l0 0c2,-9 -4,-19 -13,-21 -9,-2 -19,4 -21,13l0 0c-2,9 4,19 13,21 9,2 19,-4 21,-13zm17 -68l0 0c3,-9 -3,-19 -12,-22 -9,-3 -19,3 -22,12l0 0c-3,9 3,19 12,22 9,3 19,-3 22,-12zm19 -68l0 0c3,-9 -3,-19 -12,-22 -9,-3 -19,3 -22,12l0 0c-3,9 3,19 12,22 9,3 19,-3 22,-12zm20 -67l0 0c3,-9 -2,-19 -11,-22 -9,-3 -19,2 -22,12l0 0c-3,9 2,19 11,22 9,3 19,-2 22,-11zm22 -67l0 0c3,-9 -2,-19 -11,-22 -9,-3 -19,2 -22,11 -3,9 2,19 11,22 9,3 19,-2 22,-11zm24 -66l0 0c3,-9 -1,-19 -10,-23 -9,-3 -19,1 -23,10 -3,9 1,19 10,23 9,3 19,-1 23,-10zm25 -66l0 0c4,-9 -1,-19 -10,-23 -9,-4 -19,1 -23,10l0 0c-4,9 1,19 10,23 9,4 19,-1 23,-10zm27 -65l0 0c4,-9 0,-19 -9,-23 -9,-4 -19,0 -23,9l0 0c-4,9 0,19 9,23 9,4 19,0 23,-9zm28 -64l0 0c4,-9 0,-19 -9,-23 -9,-4 -19,0 -23,9l0 0c-4,9 0,19 9,23 9,4 19,0 23,-9zm29 -64l0 0c4,-9 0,-19 -8,-23 -9,-4 -19,0 -24,8 -4,9 0,19 8,24 9,4 19,0 24,-8zm31 -63l0 0c4,-9 1,-19 -8,-24 -9,-4 -19,-1 -24,8l0 0c-4,9 -1,19 8,24 9,4 19,1 24,-8zm32 -62l0 0c5,-9 1,-19 -7,-24 -9,-5 -19,-1 -24,7 -5,9 -1,19 7,24 9,5 19,1 24,-7zm34 -62l0 0c5,-9 2,-19 -7,-24 -9,-5 -19,-2 -24,7 -5,9 -2,19 7,24 9,5 19,2 24,-7zm35 -61l0 0c5,-8 2,-19 -6,-24 -8,-5 -19,-2 -24,6l0 0c-5,8 -2,19 6,24 8,5 19,2 24,-6zm36 -60l0 0c5,-8 3,-19 -6,-24 -8,-5 -19,-3 -24,6 -5,8 -3,19 6,24 8,5 19,3 24,-6zm38 -59l0 0c5,-8 3,-19 -5,-24 -8,-5 -19,-3 -24,5l0 0c-5,8 -3,19 5,24 8,5 19,3 24,-5zm39 -58l0 0c5,-8 3,-19 -5,-24 -8,-5 -19,-3 -24,5l0 0c-5,8 -3,19 5,25 8,5 19,3 25,-5zm40 -58l0 0c6,-8 4,-19 -4,-25 -8,-6 -19,-4 -25,4l0 0c-6,8 -4,19 4,25 8,6 19,4 25,-4zm41 -57l0 0c6,-8 4,-19 -4,-25 -8,-6 -19,-4 -25,4 -6,8 -4,19 4,25 8,6 19,4 25,-4zm42 -56l0 0c6,-8 4,-19 -3,-25 -8,-6 -19,-5 -25,3 -6,8 -5,19 3,25 8,6 19,5 25,-3zm43 -55l0 0c6,-8 5,-19 -3,-25 -8,-6 -19,-5 -25,3 -6,8 -5,19 3,25 8,6 19,5 25,-3zm44 -54l0 0c6,-8 5,-19 -2,-25 -7,-6 -19,-5 -25,2 -6,7 -5,19 2,25 7,6 19,5 25,-2zm45 -54l0 0c6,-7 6,-19 -2,-25 -7,-6 -18,-6 -25,2 -6,7 -6,19 2,25 7,6 18,6 25,-2zm46 -53l0 0c7,-7 6,-18 -1,-25 -7,-6 -18,-6 -25,1l0 0c-7,7 -6,18 1,25 7,6 18,6 25,-1z"/>
  <path class="fil9" d="M6804 2569l0 0c-107,-31 -234,-48 -362,-55l362 55zm-1033 78c-8,-37 -19,-73 -33,-108 37,-4 173,-20 346,-27 -34,11 -66,26 -95,45l-193 83c-8,2 -16,5 -24,7z"/>
  <path class="fil10" d="M5426 3193l-153 0 456 -653c0,0 3,0 10,-1 14,35 26,71 33,108 -31,10 -61,24 -88,41l-6 2 1 1c-150,93 -246,274 -252,502z"/>
  <path class="fil11" d="M5744 3193l-318 0c6,-228 102,-409 252,-502l-1 -1 6 -2c28,-17 57,-30 88,-41 8,-3 16,-5 24,-7l193 -83c-154,96 -251,287 -251,526 0,31 2,63 5,96l1 13z"/>
  <path class="fil12" d="M6488 3193l-744 0 -1 -13c-3,-33 -5,-65 -5,-96 0,-285 137,-502 346,-571 54,-2 111,-4 170,-4 62,0 125,2 188,5l362 55 -316 623z"/>
  <polygon class="fil13" points="4955,3762 6804,1902 4663,2988 "/>
  <polygon class="fil14" points="4560,2988 4955,3762 4663,2988 "/>
  <polygon class="fil15" points="4658,2961 3613,3240 6932,1758 "/>
  <polygon class="fil16" points="6423,2849 7238,1592 4663,2988 "/>
  <polygon class="fil14" points="6896,1776 4663,2988 4560,2988 "/>
  <path class="fil9" d="M11722 6963l-17 -122c34,6 68,10 102,13l0 0 21 2c5,0 11,1 16,1 5,0 11,0 16,0l20 1 0 0c6,0 13,0 19,0 100,0 194,-14 281,-40 -136,82 -291,134 -458,146z"/>
  <path class="fil17" d="M11647 6965c-67,0 -132,-6 -195,-18l-26 -192c89,40 183,69 280,86l17 122c-25,2 -50,3 -75,3z"/>
  <path class="fil18" d="M11452 6947c-150,-29 -288,-90 -407,-176l-47 -320c5,6 11,11 16,17l1 1 3 2c117,118 257,216 409,283l26 192z"/>
  <path class="fil3" d="M4948 5619l0 0c-2,9 4,19 13,21 9,2 19,-4 21,-13l0 0c2,-9 -4,-19 -13,-21 -9,-2 -19,4 -21,13zm-22 63l0 0c-4,9 -1,19 8,24 9,4 19,1 24,-8 4,-9 1,-19 -8,-24 -9,-4 -19,-1 -24,8zm-36 56l0 0c-6,8 -5,19 3,25 8,6 19,5 25,-3l0 0c6,-8 5,-19 -3,-25 -8,-6 -19,-5 -25,3zm-47 46l0 0c-8,6 -9,17 -3,25 6,8 17,9 25,3 8,-6 9,-17 3,-25 -6,-8 -17,-9 -25,-3zm-57 35l0 0c-9,4 -13,15 -9,23 4,9 15,13 23,9l0 0c9,-4 13,-15 9,-23 -4,-9 -15,-13 -23,-9zm-63 21l0 0c-10,2 -16,11 -14,21 2,10 11,16 21,14l0 0c10,-2 16,-11 14,-21 -2,-10 -11,-16 -21,-14zm-66 6l0 0c-10,0 -18,8 -18,17 0,10 8,18 17,18 10,0 18,-8 18,-17 0,-10 -8,-18 -17,-18zm-66 -9l0 0c-9,-2 -19,3 -21,13 -2,9 3,19 13,21 9,2 19,-3 21,-13 2,-9 -3,-19 -13,-21zm-62 -24l0 0c-9,-4 -19,-1 -24,8 -4,9 -1,19 8,24 9,4 19,1 24,-8 4,-9 1,-19 -8,-24zm-55 -37l0 0c-7,-6 -19,-5 -25,2 -6,7 -5,19 2,25 7,6 19,5 25,-2 6,-7 5,-19 -2,-25zm-45 -48l0 0c-6,-8 -17,-9 -25,-4 -8,6 -9,17 -4,25l0 0c6,8 17,9 25,4 8,-6 9,-17 4,-25zm-33 -57l0 0c-4,-9 -14,-13 -23,-9 -9,4 -13,14 -9,23 4,9 14,13 23,9 9,-4 13,-14 9,-23zm-19 -63l0 0c-2,-10 -11,-16 -21,-14 -10,2 -16,11 -14,21l0 0c2,10 11,16 21,14 10,-2 16,-11 14,-21zm-5 -66l0 0c0,-10 -7,-18 -17,-18 -10,0 -18,7 -18,17l0 0c0,10 7,18 17,18 10,0 18,-7 18,-17zm10 -66l0 0c3,-9 -3,-19 -12,-22 -9,-3 -19,3 -22,12l0 0c-3,9 3,19 12,22 9,3 19,-3 22,-12zm25 -62l0 0c5,-9 2,-19 -7,-24 -9,-5 -19,-2 -24,7l0 0c-5,9 -2,19 7,24 9,5 19,2 24,-7zm38 -54l0 0c6,-7 6,-18 -1,-25 -7,-6 -18,-6 -25,1 -6,7 -6,18 1,25 7,6 18,6 25,-1zm49 -44l0 0c8,-6 10,-17 4,-25 -6,-8 -17,-10 -25,-4l0 0c-8,6 -10,17 -4,25 6,8 17,10 25,4zm58 -32l0 0c9,-4 13,-14 10,-23 -4,-9 -14,-13 -23,-10 -9,4 -13,14 -10,23 4,9 14,13 23,10zm64 -18l0 0c10,-2 16,-11 15,-20 -2,-10 -11,-16 -20,-15l0 0c-10,2 -16,11 -15,20 2,10 11,16 20,15zm66 -3l0 0c10,1 18,-7 19,-16 1,-10 -7,-18 -16,-19 -10,-1 -18,7 -19,16 -1,10 7,18 16,19zm65 12l0 0c9,3 19,-2 22,-12 3,-9 -2,-19 -12,-22 -9,-3 -19,2 -22,12 -3,9 2,19 12,22zm61 26l0 0c8,5 19,2 24,-7 5,-8 2,-19 -6,-24 -8,-5 -19,-2 -24,6 -5,8 -2,19 7,24zm53 39l0 0c7,7 18,6 25,-1 7,-7 6,-18 -1,-25l0 0c-7,-7 -18,-6 -25,1 -7,7 -6,18 1,25zm43 50l0 0c5,8 16,10 25,5 8,-5 10,-16 5,-24 -5,-8 -16,-10 -24,-5 -8,5 -10,16 -5,24zm31 59l0 0c3,9 14,14 23,10 9,-4 14,-14 10,-23 -3,-9 -14,-14 -23,-10 -9,3 -14,14 -10,23zm17 64l0 0c1,10 10,16 20,15 10,-1 16,-10 15,-20 -1,-10 -10,-16 -20,-15 -10,1 -16,10 -15,20zm3 41l0 0c0,10 8,18 18,18 10,0 18,-8 18,-18 0,-10 -8,-18 -18,-18 -10,0 -18,8 -18,18z"/>
  <path class="fil3" d="M2832 4802l0 0c-5,8 -2,19 6,24 8,5 19,2 24,-6 5,-8 2,-19 -6,-24 -8,-5 -19,-2 -24,6zm-43 42l0 0c-9,5 -12,16 -7,24 5,8 16,12 24,7l0 0c9,-5 12,-16 7,-24 -5,-9 -16,-12 -24,-7zm-59 15l0 0c-10,0 -18,8 -18,17 0,10 8,18 17,18 10,0 18,-8 18,-17 0,-10 -8,-18 -17,-18zm-58 -17l0 0c-8,-5 -19,-3 -24,6 -5,8 -3,19 6,24 8,5 19,3 24,-6 5,-8 3,-19 -6,-24zm-42 -44l0 0c-5,-9 -15,-12 -24,-7 -9,5 -12,15 -7,24 5,9 15,12 24,7 9,-5 12,-15 7,-24zm-14 -59l0 0c0,-10 -7,-18 -17,-18 -10,0 -18,7 -18,17 0,10 7,18 17,18 10,0 18,-7 18,-17zm18 -58l0 0c5,-8 3,-19 -5,-24 -8,-5 -19,-3 -24,5 -5,8 -3,19 5,24 8,5 19,3 24,-5zm45 -41l0 0c9,-4 12,-15 8,-24 -4,-9 -15,-12 -24,-8 -9,4 -12,15 -8,24 4,9 15,12 24,8zm59 -12l0 0c10,1 18,-7 19,-17 1,-10 -7,-18 -17,-19l0 0c-10,-1 -18,7 -19,17 -1,10 7,18 17,19zm57 19l0 0c8,5 19,3 24,-5 5,-8 3,-19 -5,-24 -8,-5 -19,-3 -24,5 -5,8 -3,19 5,24zm40 46l0 0c4,9 15,12 24,8 9,-4 12,-15 8,-24 -4,-9 -15,-12 -24,-8 -9,4 -12,15 -8,24zm12 50l0 0c0,10 8,18 18,18 10,0 18,-8 18,-18 0,-10 -8,-18 -18,-18 -10,0 -18,8 -18,18z"/>
  <path class="fil3" d="M3709 8572l0 0c-1,10 5,19 15,20 10,1 19,-5 20,-15 1,-10 -5,-19 -15,-20 -10,-1 -19,5 -20,15zm-14 66l0 0c-3,9 3,19 12,22 9,3 19,-3 22,-12l0 0c3,-9 -3,-19 -12,-22 -9,-3 -19,3 -22,12zm-24 64l0 0c-4,9 0,19 9,23 9,4 19,0 23,-9 4,-9 0,-19 -9,-23 -9,-4 -19,0 -23,9zm-32 60l0 0c-5,8 -3,19 5,24 8,5 19,3 24,-5 5,-8 3,-19 -5,-24 -8,-5 -19,-3 -24,5zm-40 55l0 0c-6,7 -5,19 2,25 7,6 19,5 25,-2 6,-7 5,-19 -2,-25 -7,-6 -19,-5 -25,2zm-48 49l0 0c-7,6 -8,18 -2,25 6,7 18,8 25,2 7,-6 8,-18 2,-25 -6,-7 -18,-8 -25,-2zm-54 41l0 0c-8,5 -10,16 -5,24 5,8 16,10 24,5 8,-5 10,-16 5,-24 -5,-8 -16,-10 -24,-5zm-59 33l0 0c-9,4 -13,15 -8,24 4,9 15,13 24,8l0 0c9,-4 13,-15 8,-23 -4,-9 -15,-13 -23,-8zm-63 25l0 0c-9,3 -15,13 -12,22 3,9 13,15 22,12l0 0c9,-3 15,-13 12,-22 -3,-9 -13,-15 -22,-12zm-66 15l0 0c-10,2 -16,11 -15,20 2,10 11,16 20,15 10,-2 16,-11 15,-20 -2,-10 -11,-16 -20,-15zm-68 6l0 0c-10,0 -17,8 -17,18 0,10 8,18 18,17 10,0 17,-8 17,-18 0,-10 -8,-18 -18,-17zm-68 -3l0 0c-10,-1 -18,6 -20,15 -1,10 6,18 15,20l0 0c10,1 18,-6 20,-15 1,-10 -6,-18 -15,-20zm-67 -13l0 0c-9,-3 -19,3 -22,12 -3,9 3,19 12,22 9,3 19,-3 22,-12 3,-9 -3,-19 -12,-22zm-64 -22l0 0c-9,-4 -19,0 -23,9 -4,9 0,19 9,23l0 0c9,4 19,0 23,-9 4,-9 0,-19 -9,-23zm-60 -31l0 0c-8,-5 -19,-2 -24,6 -5,8 -2,19 6,24 8,5 19,2 24,-6 5,-8 2,-19 -6,-24zm-55 -39l0 0c-8,-6 -19,-5 -25,2 -6,8 -5,19 2,25 8,6 19,5 25,-2 6,-8 5,-19 -2,-25zm-49 -47l0 0c-7,-7 -18,-8 -25,-1 -7,7 -8,18 -1,25 7,7 18,8 25,1 7,-7 8,-18 1,-25zm-42 -53l0 0c-6,-8 -17,-10 -25,-5 -8,6 -10,17 -5,25 6,8 17,10 25,5 8,-6 10,-17 5,-25zm-34 -59l0 0c-4,-9 -15,-12 -24,-8 -9,4 -12,15 -8,24 4,9 15,12 24,8 9,-4 12,-15 8,-24zm-26 -63l0 0c-3,-9 -13,-14 -22,-11 -9,3 -14,13 -11,22l0 0c3,9 13,14 22,11 9,-3 14,-13 11,-22zm-17 -66l0 0c-2,-10 -11,-16 -20,-14 -10,2 -16,11 -14,20 2,10 11,16 20,14 10,-2 16,-11 14,-20zm-7 -68l0 0c0,-10 -9,-17 -18,-17 -10,0 -17,9 -17,18 0,10 9,17 18,17 10,0 17,-9 17,-18zm2 -68l0 0c1,-10 -6,-18 -16,-19 -10,-1 -18,6 -19,16 -1,10 6,18 16,19 10,1 18,-6 19,-16zm12 -67l0 0c2,-9 -3,-19 -13,-21 -9,-2 -19,3 -21,13l0 0c-2,9 3,19 13,21 9,2 19,-3 21,-13zm21 -65l0 0c4,-9 -1,-19 -10,-23 -9,-4 -19,1 -23,10l0 0c-4,9 1,19 10,23 9,4 19,-1 23,-10zm30 -61l0 0c5,-8 2,-19 -6,-24 -8,-5 -19,-2 -24,6 -5,8 -2,19 6,24 8,5 19,2 24,-6zm38 -56l0 0c6,-8 5,-19 -3,-25 -8,-6 -19,-5 -25,3l0 0c-6,8 -5,19 3,25 8,6 19,5 25,-3zm46 -50l0 0c7,-7 7,-18 1,-25 -7,-7 -18,-7 -25,-1l0 0c-7,7 -7,18 -1,25 7,7 18,7 25,1zm52 -43l0 0c8,-6 10,-17 4,-25 -6,-8 -17,-10 -25,-4 -8,6 -10,17 -4,25 6,8 17,10 25,4zm58 -36l0 0c9,-5 12,-15 8,-24 -4,-9 -15,-12 -24,-7l0 0c-9,5 -12,15 -8,24 5,9 15,12 24,8zm62 -27l0 0c9,-3 14,-13 11,-22 -3,-9 -13,-14 -22,-11 -9,3 -14,13 -11,22 3,9 13,14 22,11zm66 -18l0 0c10,-2 16,-11 14,-21 -2,-10 -11,-16 -21,-14l0 0c-10,2 -16,11 -14,21 2,10 11,16 21,14zm67 -9l0 0c10,-1 17,-9 17,-19 -1,-10 -9,-17 -19,-17l0 0c-10,1 -17,9 -17,19 1,10 9,17 19,17zm68 1l0 0c10,1 18,-6 19,-16 1,-10 -6,-18 -16,-19 -10,-1 -18,6 -19,16 -1,10 6,18 16,19zm67 10l0 0c10,2 19,-4 21,-13 2,-10 -4,-19 -13,-21 -10,-2 -19,4 -21,13 -2,9 4,19 13,21zm65 20l0 0c9,3 19,-1 23,-10 4,-9 -1,-19 -10,-23 -9,-4 -19,1 -23,10 -4,9 1,19 10,23zm62 29l0 0c9,5 19,2 24,-7 5,-9 2,-19 -7,-24 -9,-5 -19,-2 -24,7 -5,9 -2,19 7,24zm57 37l0 0c8,6 19,4 25,-3 6,-8 4,-19 -3,-25 -8,-6 -19,-4 -25,3 -6,8 -4,19 3,25zm51 45l0 0c7,7 18,7 25,0 7,-7 7,-18 0,-25 -7,-7 -18,-7 -25,0 -7,7 -7,18 0,25zm44 52l0 0c6,8 17,9 25,4 8,-6 9,-17 4,-25l0 0c-6,-8 -17,-9 -25,-4 -8,6 -9,17 -4,25zm37 57l0 0c5,9 15,12 24,7 9,-5 12,-15 7,-24 -5,-9 -15,-12 -24,-7 -9,5 -12,15 -7,24zm28 62l0 0c3,9 14,14 23,10 9,-3 14,-14 10,-23 -3,-9 -14,-14 -23,-10 -9,3 -14,14 -10,23zm19 65l0 0c2,10 11,16 21,13 10,-2 16,-11 13,-21l0 0c-2,-10 -11,-16 -21,-13 -10,2 -16,11 -13,21zm10 67l0 0c1,10 9,17 19,16 10,-1 17,-9 16,-19 -1,-10 -9,-17 -19,-16 -10,1 -17,9 -16,19zm1 36l0 0c0,10 8,18 18,18 10,0 18,-8 18,-18 0,-10 -8,-18 -18,-18 -10,0 -18,8 -18,18z"/>
  <path class="fil3" d="M13126 8952l0 0c-4,9 0,19 9,23 9,4 19,0 23,-9l0 0c4,-9 0,-19 -9,-23 -9,-4 -19,0 -23,9zm-37 51l0 0c-7,6 -8,18 -1,25 6,7 18,8 25,1 7,-7 8,-18 1,-25 -6,-7 -18,-8 -25,-1zm-54 31l0 0c-9,3 -14,13 -12,22 3,9 13,14 22,12 9,-3 14,-13 11,-22 -3,-9 -13,-14 -22,-11zm-62 6l0 0c-10,-1 -18,6 -19,16 -1,10 6,18 16,20 10,1 18,-6 19,-16 1,-10 -6,-18 -16,-20zm-59 -20l0 0c-8,-5 -19,-2 -24,6 -5,8 -2,19 6,24 8,5 19,2 24,-6 5,-8 2,-19 -6,-24zm-46 -42l0 0c-6,-8 -17,-10 -25,-4 -8,6 -10,17 -4,25l0 0c6,8 17,10 25,4 8,-6 10,-17 4,-25zm-25 -58l0 0c-2,-10 -11,-16 -21,-14 -10,2 -16,11 -14,21 2,10 11,16 21,14 10,-2 16,-11 14,-21zm1 -63l0 0c2,-9 -4,-19 -13,-21 -10,-2 -19,4 -21,13 -2,9 4,19 13,21 10,2 19,-4 21,-13zm27 -57l0 0c6,-8 4,-19 -3,-25 -8,-6 -19,-4 -25,3 -6,8 -4,19 3,25 8,6 19,4 25,-3zm47 -41l0 0c9,-5 12,-15 7,-24 -5,-9 -15,-12 -24,-7 -9,5 -12,15 -7,24 5,9 15,12 24,7zm60 -18l0 0c10,-1 17,-9 16,-19 -1,-10 -9,-17 -19,-16l0 0c-10,1 -17,9 -16,19 1,10 9,17 19,16zm62 8l0 0c9,3 19,-2 23,-11 3,-9 -2,-19 -11,-23 -9,-3 -19,2 -23,11 -3,9 2,19 11,23zm53 33l0 0c7,7 18,6 25,-1 7,-7 6,-18 -1,-25l0 0c-7,-7 -18,-6 -25,1 -7,7 -6,18 1,25zm35 52l0 0c4,9 14,13 23,10 9,-4 13,-14 10,-23 -4,-9 -14,-13 -23,-10 -9,4 -13,14 -10,23zm11 57l0 0c0,10 8,18 18,18 10,0 18,-8 18,-18l0 0c0,-10 -8,-18 -18,-18 -10,0 -18,8 -18,18z"/>
  <path class="fil3" d="M13309 7236l0 0c-2,10 5,19 14,20 10,2 19,-5 20,-14 2,-10 -5,-19 -14,-20 -10,-2 -19,5 -20,14zm-17 65l0 0c-3,9 1,19 11,23 9,3 19,-1 23,-11l0 0c3,-9 -1,-19 -11,-23 -9,-3 -19,1 -23,11zm-29 61l0 0c-5,8 -2,19 6,24 8,5 19,2 24,-6l0 0c5,-8 2,-19 -6,-24 -8,-5 -19,-2 -24,6zm-39 55l0 0c-6,7 -5,19 2,25 7,6 19,5 25,-2l0 0c6,-7 5,-19 -2,-25 -7,-6 -19,-5 -25,2zm-48 48l0 0c-7,6 -8,17 -2,25 6,7 17,8 25,2 7,-6 8,-17 2,-25 -6,-7 -17,-8 -25,-2zm-55 39l0 0c-8,5 -11,16 -6,24 5,8 16,11 24,6 8,-5 11,-16 6,-24 -5,-8 -16,-11 -24,-6zm-61 29l0 0c-9,3 -14,13 -11,23 3,9 13,14 23,11l0 0c9,-3 14,-13 11,-23 -3,-9 -13,-14 -23,-11zm-65 17l0 0c-10,2 -16,11 -14,20 2,10 11,16 20,14 10,-2 16,-11 14,-20 -2,-10 -11,-16 -20,-14zm-67 6l0 0c-10,0 -18,8 -18,18 0,10 8,18 18,18l0 0c10,0 18,-8 18,-18 0,-10 -8,-18 -18,-18zm-67 -6l0 0c-10,-2 -19,5 -20,14 -2,10 5,19 14,20l0 0c10,2 19,-5 20,-14 2,-10 -5,-19 -14,-20zm-65 -17l0 0c-9,-3 -19,1 -23,11 -3,9 1,19 11,23 9,3 19,-1 23,-11 3,-9 -1,-19 -11,-23zm-61 -28l0 0c-8,-5 -19,-2 -24,6 -5,8 -2,19 6,24l0 0c8,5 19,2 24,-6 5,-8 2,-19 -6,-24zm-55 -39l0 0c-7,-6 -19,-5 -25,2 -6,7 -5,19 2,25 7,6 19,5 25,-2 6,-7 5,-19 -2,-25zm-48 -48l0 0c-6,-7 -17,-8 -25,-2 -7,6 -8,17 -2,25l0 0c6,7 17,8 25,2 7,-6 8,-17 2,-25zm-39 -55l0 0c-5,-8 -16,-11 -24,-6 -8,5 -11,16 -6,24l0 0c5,8 16,11 24,6 8,-5 11,-16 6,-24zm-29 -61l0 0c-3,-9 -13,-14 -23,-11 -9,3 -14,13 -11,23 3,9 13,14 23,11 9,-3 14,-13 11,-23zm-17 -65l0 0c-2,-10 -11,-16 -20,-14 -10,2 -16,11 -14,20 2,10 11,16 20,14 10,-2 16,-11 14,-20zm-6 -67l0 0c0,-10 -8,-18 -18,-18 -10,0 -18,8 -18,18 0,10 8,18 18,18 10,0 18,-8 18,-18zm6 -67l0 0c2,-10 -5,-19 -14,-20 -10,-2 -19,5 -20,14l0 0c-2,10 5,19 14,20 10,2 19,-5 20,-14zm17 -65l0 0c3,-9 -1,-19 -11,-23 -9,-3 -19,1 -23,11l0 0c-3,9 1,19 11,23 9,3 19,-1 23,-11zm28 -61l0 0c5,-8 2,-19 -6,-24 -8,-5 -19,-2 -24,6l0 0c-5,8 -2,19 6,24 8,5 19,2 24,-6zm39 -55l0 0c6,-7 5,-19 -2,-25 -7,-6 -19,-5 -25,2 -6,7 -5,19 2,25 7,6 19,5 25,-2zm48 -48l0 0c7,-6 8,-17 2,-25 -6,-7 -17,-8 -25,-2l0 0c-7,6 -8,17 -2,25 6,7 17,8 25,2zm55 -39l0 0c8,-5 11,-16 6,-24 -5,-8 -16,-11 -24,-6l0 0c-8,5 -11,16 -6,24 5,8 16,11 24,6zm61 -29l0 0c9,-3 14,-13 11,-23 -3,-9 -13,-14 -23,-11 -9,3 -14,13 -11,23 3,9 13,14 23,10zm65 -17l0 0c10,-2 16,-11 14,-20 -2,-10 -11,-16 -20,-14l0 0c-10,2 -16,11 -14,20 2,10 11,16 20,14zm67 -6l0 0c10,0 18,-8 18,-18 0,-10 -8,-18 -18,-18l0 0c-10,0 -18,8 -18,18 0,10 8,18 18,18zm67 6l0 0c10,2 19,-5 20,-14 2,-10 -5,-19 -14,-20 -10,-2 -19,5 -20,14 -2,10 5,19 14,20zm65 17l0 0c9,3 19,-1 23,-11 3,-9 -1,-19 -11,-23l0 0c-9,-3 -19,1 -23,11 -3,9 1,19 11,23zm61 28l0 0c8,5 19,2 24,-6 5,-8 2,-19 -6,-24 -8,-5 -19,-2 -24,7 -5,8 -2,19 6,24zm55 39l0 0c7,6 19,5 25,-2 6,-7 5,-19 -2,-25l0 0c-7,-6 -19,-5 -25,2 -6,7 -5,19 2,25zm48 48l0 0c6,7 17,8 25,2 7,-6 8,-17 2,-25l0 0c-6,-7 -17,-8 -25,-2 -7,6 -8,17 -2,25zm39 55l0 0c5,8 16,11 24,6 8,-5 11,-16 6,-24 -5,-8 -16,-11 -24,-6 -8,5 -11,16 -6,24zm29 61l0 0c3,9 13,14 23,11 9,-3 14,-14 11,-23 -3,-9 -14,-14 -23,-10 -9,3 -14,13 -10,23zm18 65l0 0c2,10 11,16 20,14 10,-2 16,-11 14,-20l0 0c-2,-10 -11,-16 -20,-14 -10,2 -16,11 -14,20zm6 67l0 0c0,10 8,18 18,18 10,0 18,-8 18,-18 0,-10 -8,-18 -18,-18 -10,0 -18,8 -18,18zm0 1l0 0c0,10 8,18 18,18 10,0 18,-8 18,-18l0 0c0,-10 -8,-18 -18,-18 -10,0 -18,8 -18,18z"/>
  <path class="fil3" d="M11730 3051l0 0c-3,9 1,19 11,23 9,3 19,-1 23,-11l0 0c3,-9 -2,-19 -11,-23 -9,-3 -19,1 -23,11zm-32 56l0 0c-6,8 -5,19 2,25 8,6 19,5 25,-2l0 0c6,-8 5,-19 -2,-25 -8,-6 -19,-5 -25,2zm-49 42l0 0c-8,5 -11,16 -6,24 5,8 16,11 24,6l0 0c8,-5 11,-16 6,-24 -5,-8 -16,-11 -24,-6zm-60 23l0 0c-10,2 -16,11 -14,21 2,10 11,16 21,14 10,-2 16,-11 14,-21 -2,-10 -11,-16 -21,-14zm-64 2l0 0c-10,-1 -19,5 -20,15 -1,10 5,19 15,20 10,1 19,-5 20,-15 1,-10 -5,-19 -15,-20zm-61 -20l0 0c-9,-5 -19,-1 -24,7 -5,9 -1,19 7,24l0 0c9,5 19,1 24,-7 5,-9 1,-19 -7,-24zm-51 -40l0 0c-7,-7 -18,-8 -25,-1 -7,7 -8,18 -1,25l0 0c7,7 18,8 25,1 7,-7 8,-18 1,-25zm-34 -54l0 0c-4,-9 -14,-13 -23,-10 -9,4 -13,14 -10,23l0 0c4,9 14,13 23,10 9,-4 13,-14 10,-23zm-14 -63l0 0c0,-10 -9,-17 -18,-17 -10,0 -17,9 -17,18l0 0c0,10 9,17 18,17 10,0 17,-9 17,-18zm8 -64l0 0c3,-9 -2,-19 -12,-22 -9,-3 -19,2 -22,12l0 0c-3,9 2,19 12,22 9,3 19,-2 22,-12zm29 -57l0 0c6,-8 4,-19 -4,-25 -8,-6 -19,-4 -25,4l0 0c-6,8 -4,19 4,25 8,6 19,4 25,-4zm47 -44l0 0c8,-5 10,-16 5,-24 -5,-8 -16,-10 -24,-5 -8,5 -10,16 -5,24 5,8 16,10 24,5zm59 -26l0 0c9,-2 15,-12 13,-21 -2,-9 -12,-15 -21,-13 -9,2 -15,12 -13,21 2,9 12,15 21,13zm64 -5l0 0c10,1 18,-6 19,-16 1,-10 -6,-18 -16,-19 -10,-1 -18,6 -19,16 -1,10 6,18 16,19zm62 17l0 0c9,4 19,0 24,-8 4,-9 0,-19 -8,-24 -9,-4 -19,0 -23,8 -4,9 0,19 8,23zm52 37l0 0c7,7 18,7 25,0 7,-7 7,-18 0,-25 -7,-7 -18,-7 -25,0 -7,7 -7,18 0,25zm37 52l0 0c4,9 15,13 23,8 9,-4 13,-15 8,-23 -4,-9 -15,-13 -23,-8 -9,4 -13,15 -8,23zm17 62l0 0c1,10 10,17 19,16 10,-1 17,-10 16,-19 -1,-10 -10,-17 -19,-16 -10,1 -17,10 -16,19zm1 18l0 0c0,10 8,18 18,18 10,0 18,-8 18,-18l0 0c0,-10 -8,-18 -18,-18 -10,0 -18,8 -18,18z"/>
  <path class="fil19" d="M11194 8198l-2040 -185 163 -350 1165 107c9,1 17,1 25,1 129,0 216,-93 198,-218l-10 -68c-19,-133 -149,-252 -291,-265l-845 -78 95 -205 719 67c9,1 17,1 25,1 127,0 214,-93 196,-218l-201 -1440 335 -721 76 522c-98,139 -153,311 -152,503 -26,90 -39,185 -39,283 0,345 169,651 429,838l159 1085c-24,77 -33,163 -24,252 3,30 8,60 15,89z"/>
  <path class="fil20" d="M9155 8012l-2327 -211 -426 -4463 3 0 0 0 0 0 0 0 0 0 0 0 0 0 0 0 0 0 0 0 462 67c-12,30 -18,64 -14,101l294 2957c14,133 140,252 282,265l2225 207 -95 205 -2107 -195c-9,-1 -17,-1 -25,-1 -129,0 -220,94 -207,219l7 68c14,133 141,252 285,265l1806 165 -163 350zm1240 -2666l-204 -1457 441 64 98 671 -335 721z"/>
  <path class="fil21" d="M11044 6771c-260,-187 -429,-493 -429,-838 0,-98 14,-193 39,-283 0,40 3,80 8,122 32,254 156,492 335,680l47 320z"/>
  <path class="fil22" d="M11854 12887l0 0 0 0m-10 -1l-337 -23c0,0 0,-1 0,-1l-429 -2794c-20,-133 -154,-251 -300,-264l-2359 -208 91 -196 2238 198c9,1 17,1 26,1 132,0 221,-94 202,-219l-10 -68c-20,-133 -153,-251 -297,-264l-1915 -171 186 -400 2391 215 143 909c-166,145 -246,377 -190,625 48,215 188,396 369,508l336 2131c-2,1 -4,2 -7,2l0 0 0 0c-3,1 -5,2 -8,3l-1 0c-2,1 -5,2 -7,2l-1 0 -1 0c-3,1 -5,1 -8,2l0 0 0 0 0 0m-9 2l0 0c-19,4 -38,7 -58,8l0 0c-10,0 -20,0 -30,0m-4026 -272l-428 -29m-11 -1c-3,0 -6,-1 -9,-1l-1 0 0 0 0 0c-3,0 -6,-1 -9,-1l-1 0 0 0c-3,0 -6,-1 -9,-2l-1 0 0 0m-10 -2c-3,-1 -6,-1 -9,-2l0 0 -5 -1 -56 -525 385 -829 151 1336c2,20 7,39 15,58m-439 -30l0 0m-41 -6l-1 0"/>
  <path class="fil20" d="M7277 12050l-82 -772 0 0c5,0 9,1 14,1 71,0 125,-45 145,-112 83,-18 135,-101 122,-207l-151 -1204c-4,-33 -14,-64 -28,-93l51 4c7,1 14,1 21,1 152,0 255,-135 233,-311l-7 -60c37,19 77,31 118,34l795 70 -91 196 -681 -60c-9,-1 -17,-1 -26,-1 -133,0 -227,94 -213,219l166 1466 -385 829zm151 -3151c-55,-46 -120,-76 -186,-81l-311 -25 -53 -499 2060 185 -186 400 -1100 -98c-9,-1 -17,-1 -26,-1 -93,0 -167,47 -198,119z"/>
  <path class="fil18" d="M10508 7770c-8,0 -17,0 -25,-1l-1165 -107 242 -521 845 78c142,13 272,132 291,265l10 68c18,125 -69,218 -198,218z"/>
  <path class="fil23" d="M9318 7662l-1806 -165c-143,-13 -271,-132 -285,-265l-7 -68c-13,-125 78,-219 207,-219 8,0 17,0 25,1l2107 195 -242 521z"/>
  <path class="fil18" d="M10773 9601c-8,0 -17,0 -26,-1l-2238 -198 243 -522 1915 171c145,13 278,131 297,264l10 68c19,125 -70,219 -202,219z"/>
  <path class="fil23" d="M8509 9402l-795 -70c-41,-4 -82,-16 -118,-34l-15 -122c-13,-109 -72,-210 -151,-277 30,-72 104,-119 198,-119 8,0 17,0 26,1l1100 98 -243 522z"/>
  <path class="fil22" d="M7828 12615c-7,-19 -12,-38 -15,-58l-151 -1336 755 -1624 2359 208c146,13 280,131 300,264l429 2794c0,0 0,1 0,1m-41 -3l-3636 -246"/>
  <path class="fil24" d="M7663 11221l-166 -1466c-14,-125 80,-219 213,-219 8,0 17,0 26,1l681 60 -755 1624z"/>
  <path class="fil25" d="M10400 7004c-8,0 -17,0 -25,-1l-719 -67 739 -1590 201 1440c18,125 -68,218 -196,218z"/>
  <path class="fil24" d="M9655 6936l-2225 -207c-142,-13 -268,-132 -282,-265l-294 -2957c-4,-37 2,-72 14,-101l3323 484 204 1457 -739 1590z"/>
  <path class="fil9" d="M6251 11202l-1334 -108c-108,-9 -209,-115 -226,-238l-172 -1211c-15,-106 38,-189 122,-204 -9,27 -12,58 -8,91l172 1219c21,121 122,225 229,234l1204 98 12 119z"/>
  <polygon class="fil11" points="6580,11228 6251,11202 6239,11083 6567,11109 "/>
  <polygon class="fil12" points="6858,11251 6580,11228 6567,11109 6845,11132 "/>
  <polygon class="fil23" points="7195,11278 6858,11251 6845,11132 7183,11159 "/>
  <path class="fil26" d="M7210 11279c-5,0 -9,0 -14,-1l0 0 -13 -119 125 10c5,0 9,1 14,1 12,0 23,-1 33,-3 -21,68 -75,112 -145,112z"/>
  <path class="fil27" d="M7308 11169l-147 -12 -2126 -172c-107,-9 -208,-113 -229,-234l-172 -1218c-13,-120 60,-209 166,-202l2300 185c109,10 210,118 225,241l151 1204c16,125 -60,218 -169,210z"/>
  <path class="fil28" d="M4678 9378l1555 907 1011 -696c-9,-9 -18,-17 -27,-24l-986 678 -1525 -889c-10,7 -20,15 -28,24z"/>
  <path class="fil11" d="M6396 9458l-42 -3c-44,-59 -75,-130 -85,-205l-24 -181c-14,-109 20,-202 84,-258l67 647z"/>
  <path class="fil12" d="M6671 9477l-190 -101 12 90 -97 -8 -67 -647c40,-34 91,-54 149,-54 7,0 14,0 21,1l97 8 75 711z"/>
  <polygon class="fil23" points="7007,9507 6677,9481 6671,9477 6596,8766 6931,8793 "/>
  <path class="fil26" d="M7369 9668c-7,0 -14,0 -21,-1l-51 -4c-14,-28 -32,-53 -53,-75 -8,-9 -17,-17 -27,-24 -35,-28 -75,-46 -117,-50l-94 -8 -76 -714 311 25c67,5 132,35 186,81 -13,30 -18,64 -14,100l7 68c10,96 80,183 173,230l7 60c22,177 -81,311 -233,311z"/>
  <path class="fil29" d="M7595 9297c-93,-47 -162,-135 -173,-230l-7 -68c-4,-37 1,-71 14,-100 80,67 138,168 151,277l15 121z"/>
  <path class="fil28" d="M7297 9663l-145 -12 92 -63c21,22 39,47 53,75zm-200 -16l-358 -29 85 -60 -147 -78 330 27 94 8c42,4 82,22 117,50l-121 83zm-589 -66c-59,-27 -112,-71 -154,-127l42 3 97 8 15 115z"/>
  <path class="fil30" d="M7153 9652l-56 -4 121 -83c9,7 18,16 27,24l-92 63z"/>
  <polygon class="fil12" points="6671,9480 6492,9466 6481,9376 6671,9477 "/>
  <polygon class="fil23" points="6677,9481 6671,9480 6671,9477 "/>
  <polygon class="fil28" points="6531,9764 6507,9581 6492,9466 6671,9480 6677,9481 6824,9559 6739,9619 "/>
  <path class="fil1" d="M6681 9570l740 60c163,13 277,-126 255,-311l-22 -181c-23,-185 -174,-345 -338,-358l-744 -60c-164,-13 -278,126 -254,311l24 181c24,185 176,345 339,358z"/>
  <polygon class="fil1" points="6898,9521 6604,9726 6554,9338 "/>
  <polygon class="fil31" points="6519,9018 6471,9051 6448,9014 6520,8959 6556,8962 6600,9302 6555,9299 "/>
  <path class="fil31" d="M6853 9154c-10,-76 -51,-133 -100,-137 -49,-4 -77,47 -67,123 10,76 51,133 101,137 49,4 76,-47 66,-124zm-212 -17c-13,-103 31,-172 107,-166 75,6 138,83 151,186 13,104 -31,172 -106,166 -76,-6 -138,-83 -152,-187z"/>
  <path class="fil31" d="M7158 9178c-10,-76 -51,-133 -99,-137 -49,-4 -77,47 -68,123 10,76 51,133 100,137 49,4 76,-47 67,-124zm-212 -17c-13,-103 31,-172 107,-166 75,6 138,83 151,186 13,104 -31,172 -107,166 -76,-6 -138,-83 -151,-187z"/>
  <path class="fil31" d="M7464 9203c-9,-76 -50,-133 -99,-137 -49,-4 -77,47 -68,123 9,76 51,133 100,137 49,4 76,-47 67,-124zm-212 -17c-13,-103 31,-172 107,-166 75,6 138,83 151,186 13,104 -32,172 -107,166 -76,-6 -138,-83 -151,-187z"/>
  <path class="fil9" d="M5987 13390l-351 -195c-1,0 -2,0 -3,0 -25,0 -50,-1 -76,-4 -389,-41 -711,-388 -721,-774 -4,-131 27,-249 83,-348 -30,79 -45,168 -42,263 11,386 332,733 720,774 26,3 51,4 75,4 1,0 2,0 3,0l268 149 42 130zm-26 -286l-17 -53c101,-49 182,-126 236,-224 -41,116 -117,212 -219,277z"/>
  <path class="fil3" d="M6248 12483c-32,-386 -360,-733 -728,-774 -368,-41 -654,238 -642,624 11,386 332,733 720,774 26,3 52,4 78,4l350 195 -83 -255c202,-98 326,-309 305,-568z"/>
  <path class="fil16" d="M6010 12713c3,14 -1,26 -10,36l-115 109c-5,6 -12,10 -21,13 -9,3 -17,5 -26,6l-6 0c-3,0 -7,0 -12,-1 -12,-1 -31,-5 -57,-12 -26,-7 -59,-20 -98,-40 -39,-20 -83,-48 -133,-85 -49,-37 -103,-86 -159,-147 -45,-47 -82,-92 -112,-134 -30,-42 -54,-81 -72,-116 -18,-35 -32,-66 -42,-94 -10,-28 -16,-52 -20,-72 -4,-20 -6,-35 -6,-46 0,-11 0,-17 0,-18 1,-9 3,-17 7,-26 4,-9 9,-15 14,-20l113 -110c8,-8 17,-11 28,-10 8,1 15,4 21,9 6,5 12,12 16,19l106 199c6,11 8,22 6,33 -2,12 -6,21 -14,28l-42 41 -3 6 -1 7c3,13 9,29 19,46 8,16 20,35 36,58 16,23 39,50 69,81 29,32 55,56 77,74 22,18 41,32 56,41 15,9 26,15 34,17l12 4 6 -1 6 -3 49 -48c10,-9 23,-12 38,-11 10,1 19,4 25,8l1 0 184 125c13,9 22,21 25,33z"/>
  <path class="fil9" d="M6383 12465l-138 -15c-32,-250 -186,-481 -392,-617 23,-10 49,-16 77,-16 8,0 16,0 24,1l366 40 63 606z"/>
  <path class="fil11" d="M6613 12489c-8,0 -16,0 -25,-1l-205 -22 -63 -606 208 23c44,5 87,23 125,49l56 534c-27,15 -60,24 -96,24z"/>
  <path class="fil12" d="M6708 12465l-56 -534c70,49 121,129 131,214l14 129c9,85 -27,155 -89,190z"/>
  <path class="fil11" d="M6245 12451l-140 -15 71 -40 -263 -139 10 146c-93,-42 -164,-138 -171,-241l-9 -129c-6,-93 39,-167 110,-198 206,137 361,367 392,617z"/>
  <polygon class="fil11" points="5932,12533 5922,12402 5912,12257 6175,12396 6104,12435 "/>
  <path class="fil1" d="M6038 12340l586 63c129,14 223,-81 208,-213l-14 -129c-15,-131 -129,-249 -256,-263l-572 -63c-126,-14 -220,81 -210,213l9 129c9,131 120,249 249,263z"/>
  <polygon class="fil1" points="6211,12311 5969,12448 5949,12172 "/>
  <path class="fil31" d="M5983 12109l20 -21c17,21 41,37 68,40 30,3 49,-11 47,-35 -2,-25 -23,-40 -58,-44l-26 -3 -3 -32 26 3c30,3 49,-8 47,-32 -2,-23 -24,-41 -51,-44 -24,-3 -41,8 -56,26l-23 -24c16,-22 41,-38 79,-34 47,5 83,36 86,75 3,30 -16,46 -40,51 25,8 52,30 55,63 3,41 -28,67 -79,61 -40,-4 -72,-26 -92,-51z"/>
  <path class="fil31" d="M6351 12066c-5,-54 -35,-95 -73,-99 -38,-4 -62,31 -57,85 5,54 35,96 74,100 38,4 61,-31 56,-86zm-165 -18c-6,-73 30,-121 89,-114 58,6 105,63 112,136 7,74 -30,121 -89,115 -59,-6 -105,-63 -112,-137z"/>
  <path class="fil31" d="M6589 12092c-6,-54 -36,-95 -74,-100 -38,-4 -61,31 -56,85 5,54 36,96 75,100 38,4 61,-31 56,-86zm-166 -18c-7,-73 29,-121 88,-114 58,6 105,63 113,136 8,74 -29,121 -88,115 -60,-7 -106,-63 -113,-137z"/>
  <path class="fil27" d="M12727 5878c70,550 -327,972 -888,943 -561,-29 -1071,-498 -1141,-1048 -70,-550 328,-972 888,-943 560,29 1071,498 1141,1048z"/>
  <path class="fil32" d="M11961 6783c113,-113 196,-249 247,-400 100,39 197,88 290,148 -131,143 -317,235 -536,252zm-863 -324c79,-51 164,-92 255,-120 90,159 209,305 353,431 -227,-40 -439,-153 -608,-311zm1161 -570l435 22c20,220 -39,418 -154,569 -100,-66 -205,-120 -313,-162 36,-134 47,-279 32,-430zm-461 331l-45 -357 434 22c14,143 3,280 -31,407 -117,-39 -237,-64 -357,-73zm69 545l-60 -473c111,9 221,31 328,66 -54,156 -144,295 -268,407zm-133 -477l60 473c-154,-126 -281,-276 -376,-440 100,-25 206,-36 316,-33zm-488 -450l434 22 45 357c-119,-3 -235,9 -343,37 -67,-133 -114,-273 -136,-416zm-20 -599c-96,-36 -190,-82 -280,-139 129,-131 308,-215 517,-232 -105,106 -185,231 -237,370zm826 43c-88,-147 -201,-282 -335,-400 216,38 418,142 583,289 -77,48 -160,85 -248,111zm-368 48l-56 -438c144,118 264,257 357,408 -96,22 -197,32 -301,30zm9 71c115,3 226,-8 331,-34 77,142 129,294 153,448l-434 -22 -50 -392zm-72 -4l50 392 -434 -22c-15,-154 -1,-303 40,-438 113,37 228,60 344,69zm-9 -71c-105,-8 -210,-29 -313,-61 55,-144 141,-272 257,-377l56 438zm1072 516l-435 -22c-25,-162 -79,-321 -159,-471 96,-29 186,-70 269,-123 168,169 287,385 325,616zm-1783 -691c97,62 199,113 304,153 -43,143 -57,298 -40,460l-435 -22c-21,-231 45,-437 172,-591zm-163 662l435 22c23,151 72,299 143,439 -98,31 -191,75 -275,132 -156,-165 -266,-372 -302,-593zm1846 739c141,-174 211,-408 178,-670 -35,-273 -175,-526 -375,-720l0 0 -1 0c-208,-201 -482,-338 -770,-362l0 0 -21 -2c-5,0 -11,-1 -16,-1 -5,0 -11,0 -16,0l-20 -1 0 0c-285,-5 -527,104 -687,287l0 0 0 0c-153,175 -230,418 -196,690 33,262 164,506 351,697l1 1 3 2c211,212 493,357 791,382l0 0 21 2c5,0 11,1 16,1 5,0 11,0 16,0l20 1 0 0c295,5 545,-112 704,-306l1 -1 0 -1z"/>
  <path class="fil9" d="M13316 5482c-4,0 -8,0 -12,0l-689 -32c-61,-106 -138,-204 -227,-290l0 0 -1 0c-85,-82 -181,-153 -284,-211 29,-71 99,-118 187,-118 4,0 8,0 12,0l921 43c134,6 258,118 275,250l17 130c17,128 -72,228 -200,228z"/>
  <path class="fil28" d="M12536 5446l-44 -2 31 -19c5,7 9,14 13,21zm-235 -24c-53,-20 -101,-55 -135,-100 69,-26 134,-59 195,-98 43,44 83,90 120,139l-198 -88 19 147zm-174 -166c-9,-21 -15,-44 -18,-67l-17 -130c-2,-15 -3,-29 -2,-43 76,43 148,95 213,153 -55,34 -114,63 -176,87z"/>
  <path class="fil33" d="M12616 5450l-80 -4c-4,-7 -9,-14 -13,-21l40 -25 -82 -37c-36,-49 -76,-96 -120,-139 -61,39 -126,72 -195,98 -16,-20 -29,-43 -39,-66 62,-23 120,-52 176,-87 -66,-58 -137,-110 -213,-153 1,-24 6,-47 15,-67 103,57 199,129 284,211l1 0 0 0c89,86 166,184 227,290z"/>
  <path class="fil28" d="M12318 5553l-17 -131 -19 -147 198 88c15,20 29,41 42,62l-31 19 -173 109z"/>
  <path class="fil33" d="M12522 5425c-13,-21 -28,-41 -42,-62l82 37 -40 25z"/>
  <path class="fil1" d="M12417 5352l978 46c134,6 229,-96 211,-228l-17 -130c-18,-132 -141,-244 -275,-250l-978 -46c-134,-6 -229,96 -212,228l17 130c17,132 141,244 275,250z"/>
  <polygon class="fil1" points="12596,5312 12352,5465 12315,5188 "/>
  <path class="fil31" d="M12735 5021c-11,-35 -32,-59 -64,-61 -34,-2 -50,23 -47,47 4,30 31,49 61,50 27,1 47,-13 51,-37zm45 36c10,74 -27,128 -88,125 -30,-1 -55,-14 -76,-31l15 -27c17,15 34,25 57,26 38,2 61,-37 55,-91 -12,19 -36,30 -63,29 -45,-2 -87,-32 -93,-80 -6,-47 27,-80 79,-78 69,3 105,57 114,127z"/>
  <path class="fil31" d="M12829 5154l81 -70c30,-26 39,-46 36,-68 -4,-27 -28,-43 -52,-44 -27,-1 -45,12 -59,33l-27 -22c18,-28 45,-45 84,-43 46,2 87,33 93,78 4,33 -8,58 -46,90l-52 45 119 6 4 33 -176 -8 -4 -29z"/>
  <path class="fil31" d="M13209 5080c-7,-55 -40,-94 -81,-96 -40,-2 -64,35 -56,90 7,55 41,95 81,96 40,2 63,-35 56,-90zm-174 -8c-10,-74 27,-124 89,-121 62,3 113,57 122,131 10,74 -27,124 -89,121 -62,-3 -113,-57 -123,-131z"/>
  <path class="fil31" d="M13460 5092c-7,-55 -41,-94 -81,-96 -40,-2 -64,35 -56,90 7,55 41,95 81,96 40,2 63,-35 56,-90zm-174 -8c-10,-74 27,-124 89,-121 62,3 113,57 122,131 10,74 -27,124 -89,121 -62,-3 -113,-57 -123,-131z"/>
  <path class="fil27" d="M12409 5178c70,-50 101,-97 115,-134 15,-43 -10,-98 -58,-119 -57,-24 -86,23 -86,23 0,0 -42,-52 -93,-33 -44,16 -55,70 -28,115 23,39 67,90 150,148z"/>
  <path class="fil34" d="M11969 8790l-180 -1332c370,12 701,316 740,682 37,353 -210,635 -560,650z"/>
  <path class="fil35" d="M11940 8791c-6,0 -11,0 -17,0 -80,-2 -159,-18 -232,-45l-165 -1242c73,-30 154,-47 241,-47 6,0 11,0 17,0 2,0 4,0 5,0l180 1332c-9,0 -19,1 -28,1z"/>
  <path class="fil36" d="M11691 8746c-242,-88 -437,-298 -497,-549l60 5 -51 -347c51,-160 167,-287 323,-351l165 1242z"/>
  <path class="fil37" d="M11254 8203l-60 -5c-7,-29 -12,-59 -15,-89 -9,-90 0,-175 24,-252l51 347z"/>
  <path class="fil3" d="M12607 8099c39,368 -232,659 -605,650 -373,-9 -706,-314 -745,-682 -39,-368 232,-659 604,-650 372,9 706,314 745,682z"/>
  <path class="fil16" d="M11940 8436c-23,-1 -46,-10 -64,-27l-286 -274c-36,-34 -40,-87 -9,-118 30,-31 84,-28 120,6l160 154c25,-148 96,-352 289,-434 41,-17 93,3 115,46 23,43 8,91 -32,108 -222,94 -217,461 -216,464 1,33 -18,60 -48,71 -9,3 -18,4 -28,4z"/>
  <path class="fil9" d="M12244 10831l-184 -1364c293,66 547,305 616,610 79,349 -111,665 -432,754z"/>
  <path class="fil17" d="M11979 10906l-193 -1448c12,-2 23,-3 35,-5 25,-3 51,-4 76,-4 55,0 109,6 162,18l184 1364c-34,9 -70,16 -108,20 -25,3 -51,4 -76,4 -1,0 -2,0 -3,0l-78 51z"/>
  <path class="fil18" d="M11757 11051l11 -255c-41,-17 -80,-37 -117,-60l-178 -1133c85,-74 192,-125 315,-145l193 1448 -223 144z"/>
  <path class="fil21" d="M11650 10736c-181,-112 -320,-294 -369,-508 -56,-248 24,-480 190,-625l178 1133z"/>
  <path class="fil1" d="M11465 10103c-87,-386 155,-733 540,-774 385,-41 767,238 854,624 87,386 -154,733 -540,774 -26,3 -52,4 -79,4l-301 195 10 -255c-236,-98 -428,-309 -486,-568z"/>
  <path class="fil27" d="M12204 10442c190,-144 279,-277 316,-378 44,-119 -21,-267 -149,-318 -151,-60 -233,74 -233,74 0,0 -109,-136 -248,-79 -118,48 -151,195 -82,315 59,102 175,238 396,386z"/>
  <path class="fil2" d="M12796 11100l-110 -10c-15,-1 -26,10 -23,25l73 503c2,16 16,31 31,33l110 20c15,3 26,-8 23,-24l-73 -516c-2,-16 -16,-29 -31,-31z"/>
  <path class="fil2" d="M13429 11143c-5,-1 -211,-12 -211,-12l17 -85c12,-59 -13,-150 -73,-184 -19,-11 -45,-17 -65,-12 -11,3 -20,11 -25,22 -5,12 -2,27 -3,41 -1,35 -12,69 -33,93 -36,42 -151,157 -151,157l65 463 456 69c62,9 92,-66 53,-131 33,-23 38,-78 11,-123 33,-23 38,-79 11,-123 57,-42 21,-157 -54,-175z"/>
  <path class="fil2" d="M13469 11999l-63 -6c-9,-1 -15,6 -13,14l42 290c1,9 9,18 18,19l63 11c9,2 15,-5 13,-14l-42 -297c-1,-9 -9,-17 -18,-18z"/>
  <path class="fil2" d="M13834 12024l-122 -7 10 -49c7,-34 -8,-87 -42,-106 -11,-6 -26,-10 -37,-7 -6,2 -12,6 -14,12 -3,7 -1,16 -2,24 -1,20 -7,40 -19,53 -21,24 -87,91 -87,91l38 267 263 40c35,5 53,-38 31,-76 19,-13 22,-45 6,-71 19,-13 22,-45 6,-71 33,-24 12,-90 -31,-101z"/>
  <path class="fil2" d="M14449 12382l-64 -6c-9,-1 -15,6 -14,15l43 294c1,9 10,18 18,20l64 12c9,2 15,-5 14,-14l-43 -302c-1,-9 -10,-17 -18,-18z"/>
  <path class="fil2" d="M14820 12408l-124 -7 10 -50c7,-35 -8,-88 -43,-108 -11,-6 -27,-10 -38,-7 -7,2 -12,6 -15,13 -3,7 -1,16 -2,24 -1,21 -7,40 -19,54 -21,24 -88,92 -88,92l38 271 267 41c36,5 54,-38 31,-77 19,-13 22,-46 7,-72 19,-14 22,-46 6,-72 33,-24 12,-92 -32,-102z"/>
  <path class="fil2" d="M13648 10365l-63 -6c-9,-1 -15,6 -13,14l42 290c1,9 9,18 18,19l63 11c9,2 15,-5 13,-14l-42 -297c-1,-9 -9,-17 -18,-18z"/>
  <path class="fil2" d="M14013 10390l-122 -7 10 -49c7,-34 -8,-87 -42,-106 -11,-6 -26,-10 -37,-7 -6,2 -12,6 -14,12 -3,7 -1,16 -2,24 -1,20 -7,40 -19,53 -21,24 -87,91 -87,91l38 267 263 40c36,5 53,-38 31,-76 19,-13 22,-45 6,-71 19,-13 22,-45 6,-71 33,-24 12,-90 -31,-101z"/>
  <path class="fil2" d="M14149 11081l-63 -6c-9,-1 -15,6 -13,14l42 290c1,9 9,18 18,19l63 11c9,2 15,-5 13,-14l-42 -297c-1,-9 -9,-17 -18,-18z"/>
  <path class="fil2" d="M14514 11107l-122 -7 10 -49c7,-34 -8,-87 -42,-106 -11,-6 -26,-10 -37,-7 -6,2 -12,6 -14,12 -3,7 -1,16 -2,24 -1,20 -7,40 -19,53 -21,24 -87,91 -87,91l38 267 263 40c35,5 53,-38 31,-76 19,-13 22,-45 6,-71 19,-13 22,-45 6,-71 33,-24 12,-90 -31,-101z"/>
  <path class="fil2" d="M4265 11397c-30,-132 53,-250 184,-264 131,-14 262,81 291,213 30,132 -53,250 -184,264 -9,1 -18,1 -27,1l-103 67 4 -87c-81,-34 -146,-105 -166,-194z"/>
  <path class="fil2" d="M3352 12098c-46,-204 82,-387 285,-409 203,-22 405,126 451,330 46,204 -82,387 -285,409 -14,1 -28,2 -41,2l-159 103 6 -135c-125,-52 -226,-163 -257,-300z"/>
  <path class="fil2" d="M4275 13166c-28,-126 51,-239 176,-253 126,-14 251,78 279,204 28,126 -50,239 -176,253 -9,1 -17,1 -26,1l-98 64 3 -83c-77,-32 -140,-101 -159,-186z"/>
  <path class="fil2" d="M5557 8665c125,-95 184,-182 209,-249 29,-78 -14,-176 -99,-210 -100,-39 -153,48 -153,48 0,0 -72,-90 -164,-52 -78,32 -100,129 -54,208 39,68 116,157 261,255z"/>
  <path class="fil2" d="M4948 7972c125,-95 184,-182 209,-249 29,-78 -14,-176 -99,-210 -100,-39 -153,48 -153,48 0,0 -72,-90 -164,-52 -78,32 -100,129 -54,208 39,68 116,157 261,255z"/>
  <path class="fil2" d="M5140 7163c162,-123 238,-236 270,-323 37,-101 -18,-228 -128,-271 -129,-51 -199,63 -199,63 0,0 -93,-116 -212,-67 -101,41 -129,167 -70,269 50,87 150,203 338,329z"/>
 </g>
</svg>
