<?xml version="1.0" encoding="UTF-8"?>
<!DOCTYPE svg PUBLIC "-//W3C//DTD SVG 1.1//EN" "http://www.w3.org/Graphics/SVG/1.1/DTD/svg11.dtd">
<!-- Creator: CorelDRAW X6 -->
<svg xmlns="http://www.w3.org/2000/svg" xml:space="preserve" width="59.2666mm" height="59.2666mm" version="1.1" style="shape-rendering:geometricPrecision; text-rendering:geometricPrecision; image-rendering:optimizeQuality; fill-rule:evenodd; clip-rule:evenodd"
viewBox="0 0 5927 5927"
 xmlns:xlink="http://www.w3.org/1999/xlink">
 <defs>
  <style type="text/css">
   <![CDATA[
    .str2 {stroke:#456F71;stroke-width:25.4;stroke-linecap:round}
    .str0 {stroke:#456F71;stroke-width:33.87}
    .str1 {stroke:#456F71;stroke-width:33.87;stroke-linecap:round}
    .fil1 {fill:none}
    .fil2 {fill:#456F71}
    .fil0 {fill:#EFF9F0}
   ]]>
  </style>
 </defs>
 <g id="Fondo">
  <metadata id="CorelCorpID_0Corel-Layer"/>
  <path class="fil0" d="M127 860l0 2137 0 2121c0,470 0,588 54,647 54,59 162,59 1049,59l3437 0c886,0 992,0 1045,-59 53,-59 53,-177 53,-1057l0 -3404c0,-881 0,-1000 -59,-1059 -59,-59 -176,-59 -1065,-59l-3429 0c-881,0 -984,0 -1035,51 -51,51 -51,153 -51,623z"/>
  <path class="fil1 str0" d="M127 2998c0,-830 0,-1668 0,-2137 0,-470 0,-572 51,-623 51,-51 154,-51 1035,-51 881,0 2541,0 3429,0 889,0 1006,0 1065,59 59,59 59,178 59,1059 0,881 0,2523 0,3404 0,880 0,998 -53,1057 -53,59 -159,59 -1045,59 -886,0 -2551,0 -3437,0 -887,0 -995,0 -1049,-59 -54,-59 -54,-177 -54,-647 0,-470 0,-1292 0,-2121z"/>
 </g>
 <g id="Celular">
  <metadata id="CorelCorpID_1Corel-Layer"/>
  <path class="fil1 str1" d="M1525 4024c275,63 531,122 677,155 146,34 183,42 218,34 35,-8 67,-31 542,-378 475,-347 1394,-1017 1857,-1355 464,-338 473,-345 477,-348 4,-3 4,-3 4,16 0,19 0,58 0,86 0,28 0,46 -8,61 -8,15 -23,26 -487,364 -463,338 -1374,1002 -1846,1347 -472,344 -505,368 -544,375 -39,7 -85,-4 -364,-68 -279,-64 -792,-182 -1063,-243 -270,-62 -298,-68 -311,-85 -14,-17 -14,-45 -14,-73 0,-28 0,-56 0,-70 0,-14 0,-14 146,19 146,34 439,101 714,164z"/>
  <path class="fil1 str1" d="M854 3688c869,-634 1739,-1268 2187,-1595 448,-327 475,-347 509,-352 34,-5 74,4 324,61 250,57 708,162 1167,267"/>
  <path class="fil2 str2" d="M1556 3261c387,-282 1136,-828 1524,-1112 388,-283 416,-303 449,-309 33,-6 72,3 318,60 246,56 700,160 944,216 244,56 278,64 280,79 1,15 -30,38 -416,320 -386,282 -1127,822 -1512,1103 -385,281 -414,302 -452,307 -38,5 -86,-6 -337,-63 -251,-58 -707,-162 -947,-217 -240,-55 -264,-60 -263,-72 0,-12 25,-30 412,-312z"/>
  <path class="fil1 str1" d="M1774 3922c-14,6 -28,12 -44,16 -16,4 -36,5 -53,3 -18,-1 -34,-6 -49,-12 -15,-7 -29,-16 -39,-26 -10,-10 -17,-22 -20,-35 -3,-12 -1,-25 5,-37 6,-11 15,-21 28,-29 13,-8 31,-14 46,-17 16,-3 30,-3 48,0 18,3 41,11 57,19 16,8 27,17 34,25 7,8 11,15 15,22"/>
  <path class="fil2" d="M2202 4179l-677 -155 -714 -164c-146,-34 -146,-34 -146,-19l0 70c0,28 0,56 14,73 14,17 41,23 311,85l1063 243c279,64 325,74 364,68 39,-7 72,-31 544,-375l1846 -1347c463,-338 479,-349 487,-364 8,-15 8,-33 8,-61l0 -86c0,-19 0,-19 -4,-16l-477 348 -1857 1355c-475,347 -508,370 -542,378 -35,8 -71,-1 -218,-34z"/>
 </g>
</svg>
